<svg width="120" height="120" viewBox="0 0 120 120" fill="none" xmlns="http://www.w3.org/2000/svg">
<rect width="120" height="120" rx="60" fill="white"/>
<path d="M30.625 42.0909H37.9205L33.8977 66.483C33.5114 68.7443 32.6932 70.6989 31.4432 72.3466C30.1932 73.983 28.608 75.25 26.6875 76.1477C24.767 77.0341 22.625 77.4773 20.2614 77.4773C18.1364 77.4773 16.2727 77.1023 14.6705 76.3523C13.0795 75.6023 11.9034 74.4659 11.142 72.9432C10.392 71.4205 10.2045 69.5 10.5795 67.1818H17.875C17.7614 68.125 17.8182 68.9205 18.0455 69.5682C18.2841 70.2159 18.6875 70.7102 19.2557 71.0511C19.8239 71.392 20.5341 71.5625 21.3864 71.5625C22.3068 71.5625 23.125 71.3636 23.8409 70.9659C24.5568 70.5682 25.1477 69.983 25.6136 69.2102C26.0909 68.4375 26.4261 67.4943 26.6193 66.3807L30.625 42.0909ZM72.7614 54.3125H65.3977C65.4205 53.3352 65.2955 52.4716 65.0227 51.7216C64.75 50.9602 64.3409 50.3125 63.7955 49.7784C63.2614 49.2443 62.608 48.8409 61.8352 48.5682C61.0625 48.2841 60.1932 48.142 59.2273 48.142C57.3636 48.142 55.6534 48.608 54.0966 49.5398C52.5398 50.4716 51.2273 51.8239 50.1591 53.5966C49.0909 55.358 48.3523 57.4886 47.9432 59.9886C47.5455 62.3977 47.5682 64.4148 48.0114 66.0398C48.4545 67.6648 49.2386 68.892 50.3636 69.7216C51.5 70.5398 52.9148 70.9489 54.608 70.9489C55.6534 70.9489 56.6477 70.8182 57.5909 70.5568C58.5341 70.2841 59.392 69.8977 60.1648 69.3977C60.9489 68.8864 61.6307 68.267 62.2102 67.5398C62.8011 66.8125 63.2614 65.9886 63.5909 65.0682H71.0057C70.5398 66.6705 69.8125 68.2159 68.8239 69.7045C67.8466 71.1932 66.6364 72.5227 65.1932 73.6932C63.75 74.8523 62.108 75.7727 60.267 76.4545C58.4261 77.1364 56.4091 77.4773 54.2159 77.4773C51.0455 77.4773 48.3239 76.75 46.0511 75.2955C43.7898 73.8409 42.1591 71.7443 41.1591 69.0057C40.1591 66.267 39.9716 62.9659 40.5966 59.1023C41.2216 55.3636 42.4432 52.1932 44.2614 49.5909C46.0909 46.9773 48.3125 44.9943 50.9261 43.642C53.5511 42.2898 56.358 41.6136 59.3466 41.6136C61.4261 41.6136 63.3068 41.8977 64.9886 42.4659C66.6705 43.0341 68.1023 43.8636 69.2841 44.9545C70.4773 46.0341 71.375 47.358 71.9773 48.9261C72.5795 50.4943 72.8409 52.2898 72.7614 54.3125ZM101.389 53.375C101.298 52.5455 101.105 51.8125 100.81 51.1761C100.526 50.5284 100.134 49.983 99.6335 49.5398C99.1335 49.0852 98.5256 48.7386 97.8097 48.5C97.0938 48.2614 96.2642 48.142 95.321 48.142C93.5369 48.142 91.8665 48.5852 90.3097 49.4716C88.7642 50.358 87.446 51.6477 86.3551 53.3409C85.2642 55.0227 84.5199 57.0795 84.1222 59.5114C83.7131 61.9432 83.7131 64.0114 84.1222 65.7159C84.5426 67.4205 85.3324 68.7216 86.4915 69.6193C87.6619 70.5057 89.1676 70.9489 91.0085 70.9489C92.679 70.9489 94.179 70.6534 95.5085 70.0625C96.8381 69.4602 97.9233 68.6136 98.7642 67.5227C99.6165 66.4318 100.162 65.142 100.401 63.6534L101.866 63.875H92.8835L93.804 58.3182H108.412L107.662 62.7159C107.173 65.7841 106.099 68.4205 104.44 70.625C102.781 72.8295 100.713 74.5227 98.2358 75.7045C95.7699 76.8864 93.0653 77.4773 90.1222 77.4773C86.8494 77.4773 84.0938 76.7557 81.8551 75.3125C79.6278 73.858 78.0426 71.7955 77.0994 69.125C76.1676 66.4432 76.0028 63.2614 76.6051 59.5795C77.071 56.75 77.9006 54.2273 79.0938 52.0114C80.2983 49.7841 81.7699 47.8977 83.5085 46.3523C85.2472 44.8068 87.1733 43.6307 89.2869 42.8239C91.4119 42.017 93.6222 41.6136 95.9176 41.6136C97.8949 41.6136 99.6847 41.9034 101.287 42.483C102.901 43.0511 104.281 43.858 105.429 44.9034C106.588 45.9489 107.463 47.1932 108.054 48.6364C108.656 50.0682 108.935 51.6477 108.889 53.375H101.389Z" fill="#0F172A"/>
</svg>
